<svg width="26" height="26" viewBox="0 0 26 26" fill="none" xmlns="http://www.w3.org/2000/svg">
<path fill-rule="evenodd" clip-rule="evenodd" d="M0.421824 0.753113C0.519783 0.36128 0.917001 0.122982 1.30881 0.220953L4.88478 1.11509C5.162 1.18439 5.37359 1.40896 5.42624 1.68986L7.99617 15.3965H22.7492V4.50667C22.7492 4.10284 23.0766 3.77542 23.4807 3.77542H25.2687C25.6725 3.77542 26 4.10285 26 4.50667C26 4.91075 25.6725 5.23818 25.2687 5.23818H24.2122V16.128C24.2122 16.5321 23.8845 16.8595 23.4807 16.8595H7.38917C7.03726 16.8595 6.73528 16.6088 6.67039 16.263L4.07501 2.42026L0.954072 1.64004C0.562239 1.54208 0.32394 1.14511 0.421911 0.753057L0.421824 0.753113Z" fill="white"/>
<path fill-rule="evenodd" clip-rule="evenodd" d="M9.33936 9.87061C9.33936 9.46653 9.66678 9.1391 10.0706 9.1391H19.0101C19.4141 9.1391 19.7416 9.46653 19.7416 9.87061C19.7416 10.2744 19.4141 10.6019 19.0101 10.6019H10.0706C9.66678 10.6019 9.33936 10.2744 9.33936 9.87061Z" fill="white"/>
<path fill-rule="evenodd" clip-rule="evenodd" d="M12.9154 6.29459C12.9154 5.89075 13.2428 5.56308 13.6469 5.56308H19.0106C19.4147 5.56308 19.7422 5.89075 19.7422 6.29459C19.7422 6.69866 19.4147 7.02609 19.0106 7.02609H13.6469C13.2428 7.02609 12.9154 6.69866 12.9154 6.29459Z" fill="white"/>
<path fill-rule="evenodd" clip-rule="evenodd" d="M16.4914 2.71918C16.4914 2.3151 16.8188 1.98767 17.2226 1.98767H19.0107C19.4147 1.98767 19.7422 2.3151 19.7422 2.71918C19.7422 3.12301 19.4147 3.45043 19.0107 3.45043H17.2226C16.8188 3.45043 16.4914 3.123 16.4914 2.71918Z" fill="white"/>
<path fill-rule="evenodd" clip-rule="evenodd" d="M13.3216 23.2801C13.3216 24.5818 12.2666 25.637 10.965 25.637C9.66335 25.637 8.60809 24.5818 8.60809 23.2801C8.60809 21.9785 9.66335 20.9232 10.965 20.9232C12.2666 20.9232 13.3216 21.9785 13.3216 23.2801ZM10.965 24.1742C11.4587 24.1742 11.8589 23.7738 11.8589 23.2801C11.8589 22.7864 11.4587 22.3862 10.965 22.3862C10.4713 22.3862 10.0709 22.7864 10.0709 23.2801C10.0709 23.7738 10.4713 24.1742 10.965 24.1742Z" fill="white"/>
<path fill-rule="evenodd" clip-rule="evenodd" d="M21.3677 23.2801C21.3677 24.5818 20.3125 25.637 19.0108 25.637C17.7092 25.637 16.6539 24.5818 16.6539 23.2801C16.6539 21.9785 17.7092 20.9232 19.0108 20.9232C20.3125 20.9232 21.3677 21.9785 21.3677 23.2801ZM19.0108 24.1742C19.5045 24.1742 19.9047 23.7738 19.9047 23.2801C19.9047 22.7864 19.5045 22.3862 19.0108 22.3862C18.5171 22.3862 18.1169 22.7864 18.1169 23.2801C18.1169 23.7738 18.5171 24.1742 19.0108 24.1742Z" fill="white"/>
</svg>
