<svg width="26" height="26" viewBox="0 0 26 26" fill="none" xmlns="http://www.w3.org/2000/svg">
<path d="M12.7874 0.198944C8.58095 0.198944 5.15945 3.62031 5.15945 7.82689C5.15945 10.0942 6.15808 12.127 7.73381 13.5263C3.07155 15.5305 0.000366211 20.144 0.000366211 25.2753C0.000366211 25.552 0.219076 25.7732 0.49824 25.7732H25.0768C25.3535 25.7732 25.5801 25.552 25.5801 25.2753C25.5826 20.144 22.5057 15.5334 17.8467 13.5263C19.4224 12.1268 20.4157 10.094 20.4157 7.82689C20.4157 3.62045 16.994 0.198944 12.7874 0.198944ZM12.7922 1.20008C16.4455 1.20008 19.4187 4.17084 19.4187 7.82653C19.4187 11.4796 16.4453 14.453 12.7922 14.453C9.13895 14.453 6.16531 11.4822 6.16531 7.82653C6.16531 4.17057 9.13872 1.20008 12.7922 1.20008ZM8.66587 14.2361C9.85644 15.0063 11.2707 15.4545 12.7922 15.4545C14.3137 15.4545 15.7227 15.0037 16.9132 14.2361C21.3502 15.8931 24.3695 20.0555 24.5677 24.7772H1.01705C1.21489 20.0583 4.23419 15.8956 8.66587 14.2361Z" fill="black"/>
</svg>
